<svg xmlns="http://www.w3.org/2000/svg" xmlns:ooo="http://xml.openoffice.org/svg/export" xmlns:xlink="http://www.w3.org/1999/xlink" xmlns:presentation="http://sun.com/xmlns/staroffice/presentation" xmlns:smil="http://www.w3.org/2001/SMIL20/" xmlns:anim="urn:oasis:names:tc:opendocument:xmlns:animation:1.0" xmlns:svg="urn:oasis:names:tc:opendocument:xmlns:svg-compatible:1.0" width="60.17mm" height="23.09mm" viewBox="10146 9271 6017 2309" preserveAspectRatio="xMidYMid" fill-rule="evenodd" stroke-width="28.222" stroke-linejoin="round" xml:space="preserve"> <defs class="EmbeddedBulletChars">  <g id="bullet-char-template-57356" transform="scale(0.00048828125,-0.00048828125)">   <path d="M 580,1141 L 1163,571 580,0 -4,571 580,1141 Z"></path>  </g>  <g id="bullet-char-template-57354" transform="scale(0.00048828125,-0.00048828125)">   <path d="M 8,1128 L 1137,1128 1137,0 8,0 8,1128 Z"></path>  </g>  <g id="bullet-char-template-10146" transform="scale(0.00048828125,-0.00048828125)">   <path d="M 174,0 L 602,739 174,1481 1456,739 174,0 Z M 1358,739 L 309,1346 659,739 1358,739 Z"></path>  </g>  <g id="bullet-char-template-10132" transform="scale(0.00048828125,-0.00048828125)">   <path d="M 2015,739 L 1276,0 717,0 1260,543 174,543 174,936 1260,936 717,1481 1274,1481 2015,739 Z"></path>  </g>  <g id="bullet-char-template-10007" transform="scale(0.00048828125,-0.00048828125)">   <path d="M 0,-2 C -7,14 -16,27 -25,37 L 356,567 C 262,823 215,952 215,954 215,979 228,992 255,992 264,992 276,990 289,987 310,991 331,999 354,1012 L 381,999 492,748 772,1049 836,1024 860,1049 C 881,1039 901,1025 922,1006 886,937 835,863 770,784 769,783 710,716 594,584 L 774,223 C 774,196 753,168 711,139 L 727,119 C 717,90 699,76 672,76 641,76 570,178 457,381 L 164,-76 C 142,-110 111,-127 72,-127 30,-127 9,-110 8,-76 1,-67 -2,-52 -2,-32 -2,-23 -1,-13 0,-2 Z"></path>  </g>  <g id="bullet-char-template-10004" transform="scale(0.00048828125,-0.00048828125)">   <path d="M 285,-33 C 182,-33 111,30 74,156 52,228 41,333 41,471 41,549 55,616 82,672 116,743 169,778 240,778 293,778 328,747 346,684 L 369,508 C 377,444 397,411 428,410 L 1163,1116 C 1174,1127 1196,1133 1229,1133 1271,1133 1292,1118 1292,1087 L 1292,965 C 1292,929 1282,901 1262,881 L 442,47 C 390,-6 338,-33 285,-33 Z"></path>  </g>  <g id="bullet-char-template-9679" transform="scale(0.00048828125,-0.00048828125)">   <path d="M 813,0 C 632,0 489,54 383,161 276,268 223,411 223,592 223,773 276,916 383,1023 489,1130 632,1184 813,1184 992,1184 1136,1130 1245,1023 1353,916 1407,772 1407,592 1407,412 1353,268 1245,161 1136,54 992,0 813,0 Z"></path>  </g>  <g id="bullet-char-template-8226" transform="scale(0.00048828125,-0.00048828125)">   <path d="M 346,457 C 273,457 209,483 155,535 101,586 74,649 74,723 74,796 101,859 155,911 209,963 273,989 346,989 419,989 480,963 531,910 582,859 608,796 608,723 608,648 583,586 532,535 482,483 420,457 346,457 Z"></path>  </g>  <g id="bullet-char-template-8211" transform="scale(0.00048828125,-0.00048828125)">   <path d="M -4,459 L 1135,459 1135,606 -4,606 -4,459 Z"></path>  </g>  <g id="bullet-char-template-61548" transform="scale(0.00048828125,-0.00048828125)">   <path d="M 173,740 C 173,903 231,1043 346,1159 462,1274 601,1332 765,1332 928,1332 1067,1274 1183,1159 1299,1043 1357,903 1357,740 1357,577 1299,437 1183,322 1067,206 928,148 765,148 601,148 462,206 346,322 231,437 173,577 173,740 Z"></path>  </g> </defs> <g class="Page">  <g class="com.sun.star.drawing.ClosedBezierShape">   <g id="id3">    <rect class="BoundingBox" stroke="none" fill="none" x="10146" y="9547" width="822" height="1092"></rect>    <path fill="rgb(31,79,72)" stroke="none" d="M 10146,9968 C 10146,10036 10187,10126 10292,10180 10299,10183 10308,10180 10311,10172 L 10314,10166 C 10319,10157 10319,10147 10316,10138 10301,10101 10291,10043 10291,9989 10291,9798 10400,9657 10594,9657 10708,9657 10778,9721 10778,9852 10778,10023 10687,10132 10513,10184 L 10514,10181 C 10559,10024 10594,9901 10667,9755 10670,9747 10670,9735 10665,9728 L 10661,9721 C 10656,9713 10647,9710 10640,9713 L 10508,9798 C 10431,9845 10387,9996 10365,10077 L 10213,10626 C 10210,10634 10216,10638 10223,10637 L 10387,10589 C 10396,10586 10403,10579 10406,10570 L 10480,10300 C 10705,10234 10967,10046 10967,9805 10967,9639 10824,9547 10668,9547 10403,9547 10146,9743 10146,9968 Z "></path>   </g>  </g>  <g class="com.sun.star.drawing.ClosedBezierShape">   <g id="id4">    <rect class="BoundingBox" stroke="none" fill="none" x="10858" y="9708" width="2126" height="1242"></rect>    <path fill="rgb(31,79,72)" stroke="none" d="M 12923,10196 C 12914,10193 12907,10201 12902,10210 L 12889,10239 C 12824,10380 12748,10469 12705,10469 12679,10469 12667,10455 12667,10427 12667,10410 12671,10387 12680,10358 L 12735,10177 C 12768,10068 12791,9962 12825,9894 12839,9868 12842,9859 12842,9851 12842,9844 12834,9838 12824,9840 L 12683,9866 C 12662,9871 12636,9871 12628,9891 L 12622,9912 C 12594,9885 12566,9877 12534,9877 12354,9877 12188,10160 12165,10362 12106,10416 12034,10449 11947,10476 11943,10478 11941,10475 11944,10472 12079,10353 12107,10164 12107,10041 12107,9945 12060,9875 11974,9875 11916,9875 11873,9885 11826,9928 11891,9796 11891,9796 11922,9746 11927,9738 11925,9725 11921,9716 11918,9709 11909,9706 11901,9709 L 11759,9768 C 11749,9772 11724,9788 11722,9791 11678,9870 11659,9902 11601,10105 L 11536,10332 C 11485,10418 11434,10469 11401,10469 11375,10469 11363,10455 11363,10427 11363,10410 11367,10387 11376,10358 L 11431,10177 C 11464,10068 11487,9962 11521,9894 11535,9868 11538,9859 11538,9851 11538,9844 11530,9838 11520,9840 L 11379,9866 C 11359,9871 11332,9871 11324,9891 L 11319,9912 C 11290,9885 11262,9877 11230,9877 11036,9877 10858,10207 10858,10408 10858,10525 10911,10599 11014,10599 11071,10599 11142,10566 11196,10484 11208,10542 11240,10582 11296,10594 11308,10597 11322,10599 11335,10599 11387,10599 11433,10580 11475,10546 L 11367,10923 C 11361,10945 11367,10951 11387,10948 L 11535,10921 C 11544,10920 11551,10912 11554,10904 L 11784,10079 C 11811,10028 11839,9992 11878,9992 11900,9992 11912,10013 11912,10075 11912,10189 11827,10497 11721,10524 11707,10526 11705,10532 11702,10544 L 11690,10584 C 11687,10591 11693,10599 11700,10599 11895,10599 12050,10574 12170,10479 12188,10555 12238,10599 12317,10599 12375,10599 12446,10566 12500,10484 12511,10542 12544,10582 12600,10594 12612,10597 12625,10599 12639,10599 12775,10599 12871,10469 12957,10285 L 12979,10236 C 12987,10220 12982,10214 12970,10211 L 12923,10196 Z M 11295,9996 L 11231,10230 11221,10261 C 11188,10380 11126,10473 11082,10473 11067,10473 11054,10457 11054,10418 11054,10296 11154,9973 11261,9973 11276,9973 11289,9979 11295,9995 L 11295,9996 Z M 12599,9996 L 12535,10230 12525,10261 C 12492,10380 12430,10473 12386,10473 12371,10473 12357,10457 12357,10418 12357,10296 12458,9973 12565,9973 12580,9973 12593,9979 12599,9995 L 12599,9996 Z "></path>   </g>  </g>  <g class="com.sun.star.drawing.ClosedBezierShape">   <g id="id5">    <rect class="BoundingBox" stroke="none" fill="none" x="14352" y="9546" width="1102" height="1411"></rect>    <path fill="rgb(31,79,72)" stroke="none" d="M 15413,10678 C 15405,10674 15395,10677 15391,10682 L 15374,10706 C 15339,10758 15299,10789 15249,10789 15120,10789 14975,10592 14820,10452 14881,10375 14944,10258 14987,10098 L 15028,9941 C 15081,9740 15118,9642 15192,9642 15250,9642 15274,9700 15274,9767 15274,9867 15216,9981 15105,10040 15095,10046 15092,10052 15093,10063 L 15099,10097 C 15100,10109 15108,10110 15115,10107 15354,10033 15453,9897 15453,9747 15453,9615 15343,9547 15232,9547 15040,9547 14902,9673 14834,9918 L 14790,10079 C 14760,10187 14728,10285 14695,10360 14645,10332 14595,10314 14541,10314 14444,10314 14352,10371 14352,10465 14352,10535 14402,10600 14535,10600 14621,10600 14685,10577 14741,10532 14884,10687 15024,10956 15197,10956 15253,10956 15299,10930 15342,10876 15360,10853 15377,10826 15395,10792 L 15438,10709 C 15443,10702 15440,10693 15432,10688 L 15413,10678 Z M 14492,10461 C 14492,10428 14513,10413 14549,10413 14581,10413 14612,10425 14643,10445 14620,10474 14595,10499 14549,10499 14513,10499 14492,10489 14492,10461 Z "></path>   </g>  </g>  <g class="com.sun.star.drawing.ClosedBezierShape">   <g id="id6">    <rect class="BoundingBox" stroke="none" fill="none" x="15338" y="9841" width="825" height="760"></rect>    <path fill="rgb(31,79,72)" stroke="none" d="M 16101,10180 C 16092,10177 16084,10184 16081,10191 L 16058,10241 C 15992,10383 15915,10471 15874,10471 15847,10471 15835,10457 15835,10429 15835,10412 15840,10389 15849,10360 L 15927,10094 15985,9882 C 15994,9852 15988,9838 15964,9842 L 15822,9875 C 15813,9876 15806,9883 15803,9892 L 15748,10094 15689,10290 C 15658,10376 15610,10465 15559,10465 15533,10465 15526,10444 15526,10416 15526,10379 15539,10336 15559,10275 L 15678,9882 C 15689,9849 15675,9839 15656,9842 L 15508,9875 C 15499,9876 15492,9883 15489,9892 L 15390,10228 C 15368,10303 15338,10395 15338,10469 15338,10543 15368,10600 15462,10600 15554,10600 15621,10551 15668,10484 15681,10554 15724,10600 15807,10600 15939,10600 16053,10454 16134,10272 L 16161,10211 C 16164,10205 16158,10197 16152,10196 L 16101,10180 Z "></path>   </g>  </g>  <g class="com.sun.star.drawing.ClosedBezierShape">   <g id="id7">    <rect class="BoundingBox" stroke="none" fill="none" x="15347" y="9861" width="816" height="751"></rect>    <path fill="rgb(31,79,72)" stroke="none" d="M 15968,9862 C 15991,9858 15997,9873 15988,9902 L 15931,10112 15854,10374 C 15845,10403 15840,10425 15840,10442 15840,10470 15852,10483 15878,10483 15919,10483 15995,10397 16060,10257 L 16082,10209 C 16085,10201 16093,10194 16102,10197 L 16152,10213 C 16158,10214 16164,10222 16161,10228 L 16134,10288 C 16054,10467 15943,10611 15812,10611 15730,10611 15687,10565 15674,10497 15627,10562 15562,10611 15471,10611 15377,10611 15348,10555 15348,10482 15348,10409 15377,10318 15399,10244 L 15497,9912 C 15500,9903 15507,9896 15516,9895 L 15662,9862 C 15681,9860 15695,9870 15684,9902 L 15566,10290 C 15547,10350 15534,10393 15534,10429 15534,10457 15541,10478 15566,10478 15617,10478 15664,10390 15695,10305 L 15753,10112 15807,9912 C 15810,9903 15817,9896 15826,9895 L 15968,9862 Z "></path>   </g>  </g>  <g class="com.sun.star.drawing.ClosedBezierShape">   <g id="id8">    <rect class="BoundingBox" stroke="none" fill="none" x="10203" y="11230" width="241" height="303"></rect>    <path fill="rgb(31,79,72)" stroke="none" d="M 10207,11532 C 10205,11532 10203,11530 10203,11527 L 10205,11379 10203,11235 C 10203,11232 10205,11230 10207,11230 L 10329,11230 C 10390,11230 10434,11254 10434,11305 10434,11341 10415,11362 10380,11372 10424,11381 10443,11408 10443,11442 10443,11506 10389,11532 10330,11532 L 10207,11532 Z M 10255,11355 L 10329,11355 C 10361,11355 10381,11342 10381,11313 10381,11284 10359,11270 10329,11270 L 10257,11270 10255,11355 Z M 10257,11493 L 10329,11493 C 10363,11493 10389,11480 10389,11442 10389,11406 10361,11394 10329,11394 L 10255,11394 10257,11493 Z "></path>   </g>  </g>  <g class="com.sun.star.drawing.ClosedBezierShape">   <g id="id9">    <rect class="BoundingBox" stroke="none" fill="none" x="10494" y="11230" width="237" height="309"></rect>    <path fill="rgb(31,79,72)" stroke="none" d="M 10496,11418 L 10496,11331 10494,11235 C 10494,11232 10497,11230 10499,11230 L 10545,11230 C 10548,11230 10550,11232 10550,11235 L 10548,11330 10549,11418 C 10549,11465 10567,11494 10613,11494 10661,11494 10681,11465 10681,11418 L 10681,11331 10679,11235 C 10679,11232 10681,11230 10684,11230 L 10725,11230 C 10728,11230 10730,11232 10730,11235 L 10729,11331 10729,11418 C 10729,11495 10690,11538 10613,11538 10535,11538 10495,11495 10496,11418 Z "></path>   </g>  </g>  <g class="com.sun.star.drawing.ClosedBezierShape">   <g id="id10">    <rect class="BoundingBox" stroke="none" fill="none" x="10791" y="11230" width="241" height="303"></rect>    <path fill="rgb(31,79,72)" stroke="none" d="M 10936,11472 L 10899,11415 10845,11415 10846,11527 C 10846,11530 10844,11532 10842,11532 L 10796,11532 C 10793,11532 10791,11530 10791,11527 L 10793,11380 10791,11235 C 10791,11232 10793,11230 10796,11230 L 10910,11230 C 10982,11230 11024,11262 11024,11323 11024,11369 10998,11399 10955,11410 L 11030,11528 C 11032,11530 11030,11532 11028,11532 L 10977,11532 C 10974,11532 10971,11530 10969,11528 L 10936,11472 Z M 10846,11272 L 10844,11375 10914,11375 C 10948,11375 10973,11360 10973,11324 10973,11289 10951,11272 10913,11272 L 10846,11272 Z "></path>   </g>  </g>  <g class="com.sun.star.drawing.ClosedBezierShape">   <g id="id11">    <rect class="BoundingBox" stroke="none" fill="none" x="11074" y="11224" width="284" height="315"></rect>    <path fill="rgb(31,79,72)" stroke="none" d="M 11074,11381 C 11074,11285 11132,11224 11217,11224 11288,11224 11334,11260 11349,11322 11350,11325 11348,11327 11346,11327 L 11300,11327 C 11298,11327 11295,11325 11294,11322 11285,11285 11258,11266 11217,11266 11162,11266 11129,11310 11129,11381 11129,11452 11163,11496 11219,11496 11270,11496 11299,11465 11300,11412 L 11218,11412 C 11216,11412 11214,11410 11214,11408 L 11214,11376 C 11214,11373 11216,11371 11218,11371 L 11351,11371 C 11354,11371 11356,11373 11356,11376 11357,11484 11307,11538 11218,11538 11133,11538 11074,11475 11074,11381 Z "></path>   </g>  </g>  <g class="com.sun.star.drawing.ClosedBezierShape">   <g id="id12">    <rect class="BoundingBox" stroke="none" fill="none" x="11412" y="11230" width="206" height="303"></rect>    <path fill="rgb(31,79,72)" stroke="none" d="M 11417,11532 C 11415,11532 11412,11530 11412,11527 L 11415,11379 11412,11235 C 11412,11232 11415,11230 11417,11230 L 11609,11230 C 11611,11230 11614,11232 11614,11235 L 11614,11268 C 11614,11270 11611,11272 11609,11272 L 11467,11272 11465,11352 11598,11352 C 11600,11352 11602,11354 11602,11357 L 11602,11388 C 11602,11391 11600,11393 11598,11393 L 11465,11393 11467,11491 11612,11491 C 11615,11491 11617,11493 11617,11495 L 11617,11527 C 11617,11530 11615,11532 11612,11532 L 11417,11532 Z "></path>   </g>  </g>  <g class="com.sun.star.drawing.ClosedBezierShape">   <g id="id13">    <rect class="BoundingBox" stroke="none" fill="none" x="11674" y="11230" width="241" height="303"></rect>    <path fill="rgb(31,79,72)" stroke="none" d="M 11819,11472 L 11782,11415 11727,11415 11729,11527 C 11729,11530 11726,11532 11724,11532 L 11679,11532 C 11676,11532 11674,11530 11674,11527 L 11676,11380 11674,11235 C 11674,11232 11676,11230 11679,11230 L 11793,11230 C 11865,11230 11907,11262 11907,11323 11907,11369 11882,11399 11838,11410 L 11913,11528 C 11915,11530 11913,11532 11911,11532 L 11860,11532 C 11857,11532 11854,11530 11852,11528 L 11819,11472 Z M 11728,11272 L 11726,11375 11797,11375 C 11831,11375 11856,11360 11856,11324 11856,11289 11834,11272 11796,11272 L 11728,11272 Z "></path>   </g>  </g>  <g class="com.sun.star.drawing.ClosedBezierShape">   <g id="id14">    <rect class="BoundingBox" stroke="none" fill="none" x="11953" y="11476" width="65" height="104"></rect>    <path fill="rgb(31,79,72)" stroke="none" d="M 11957,11579 C 11955,11579 11952,11577 11953,11574 L 11965,11530 11965,11481 C 11965,11479 11967,11477 11970,11477 L 12011,11477 C 12014,11477 12016,11479 12016,11481 L 12016,11524 C 12016,11527 12015,11531 12014,11533 L 11984,11575 C 11982,11577 11980,11579 11977,11579 L 11957,11579 Z "></path>   </g>  </g>  <g class="com.sun.star.drawing.ClosedBezierShape">   <g id="id15">    <rect class="BoundingBox" stroke="none" fill="none" x="12161" y="11229" width="383" height="304"></rect>    <path fill="rgb(31,79,72)" stroke="none" d="M 12409,11532 C 12407,11532 12404,11530 12404,11527 L 12349,11304 12299,11527 C 12298,11530 12296,11532 12293,11532 L 12238,11532 C 12235,11532 12233,11530 12232,11527 L 12161,11235 C 12160,11232 12162,11230 12164,11230 L 12208,11230 C 12211,11230 12213,11232 12214,11235 L 12268,11483 12320,11235 C 12321,11232 12323,11230 12326,11230 L 12379,11230 C 12381,11230 12384,11232 12384,11235 L 12437,11484 12492,11235 C 12492,11232 12495,11230 12498,11230 L 12538,11230 C 12541,11230 12543,11232 12542,11235 L 12469,11527 C 12468,11530 12466,11532 12463,11532 L 12409,11532 Z "></path>   </g>  </g>  <g class="com.sun.star.drawing.ClosedBezierShape">   <g id="id16">    <rect class="BoundingBox" stroke="none" fill="none" x="12573" y="11230" width="242" height="303"></rect>    <path fill="rgb(31,79,72)" stroke="none" d="M 12717,11472 L 12681,11415 12626,11415 12628,11527 C 12628,11530 12626,11532 12623,11532 L 12578,11532 C 12575,11532 12573,11530 12573,11527 L 12575,11380 12573,11235 C 12573,11232 12575,11230 12578,11230 L 12691,11230 C 12764,11230 12807,11262 12807,11323 12807,11369 12781,11399 12737,11410 L 12813,11528 C 12814,11530 12813,11532 12810,11532 L 12759,11532 C 12756,11532 12753,11530 12752,11528 L 12717,11472 Z M 12627,11272 L 12626,11375 12695,11375 C 12729,11375 12755,11360 12755,11324 12755,11289 12732,11272 12694,11272 L 12627,11272 Z "></path>   </g>  </g>  <g class="com.sun.star.drawing.ClosedBezierShape">   <g id="id17">    <rect class="BoundingBox" stroke="none" fill="none" x="12862" y="11230" width="280" height="303"></rect>    <path fill="rgb(31,79,72)" stroke="none" d="M 13092,11532 C 13090,11532 13087,11530 13086,11528 L 13060,11449 12941,11449 12916,11528 C 12915,11530 12913,11532 12910,11532 L 12865,11532 C 12863,11532 12861,11530 12862,11528 L 12965,11235 C 12966,11232 12969,11230 12972,11230 L 13033,11230 C 13035,11230 13038,11232 13039,11235 L 13140,11528 C 13141,11530 13140,11532 13137,11532 L 13092,11532 Z M 13046,11406 L 13000,11268 12956,11406 13046,11406 Z "></path>   </g>  </g>  <g class="com.sun.star.drawing.ClosedBezierShape">   <g id="id18">    <rect class="BoundingBox" stroke="none" fill="none" x="13195" y="11230" width="224" height="304"></rect>    <path fill="rgb(31,79,72)" stroke="none" d="M 13248,11423 L 13250,11527 C 13250,11530 13248,11532 13245,11532 L 13200,11532 C 13197,11532 13195,11530 13195,11527 L 13198,11380 13195,11235 C 13195,11232 13197,11230 13200,11230 L 13305,11230 C 13376,11230 13417,11263 13417,11326 13417,11388 13374,11423 13306,11423 L 13248,11423 Z M 13249,11272 L 13248,11382 13309,11382 C 13342,11382 13366,11367 13366,11327 13366,11289 13345,11272 13307,11272 L 13249,11272 Z "></path>   </g>  </g>  <g class="com.sun.star.drawing.ClosedBezierShape">   <g id="id19">    <rect class="BoundingBox" stroke="none" fill="none" x="13459" y="11223" width="255" height="316"></rect>    <path fill="rgb(31,79,72)" stroke="none" d="M 13459,11434 C 13459,11432 13462,11430 13464,11430 L 13510,11430 C 13513,11430 13515,11432 13515,11434 13520,11473 13538,11496 13592,11496 13634,11496 13660,11483 13660,11449 13660,11374 13465,11432 13465,11314 13465,11258 13510,11224 13582,11224 13651,11224 13697,11252 13705,11314 13705,11317 13703,11319 13701,11319 L 13655,11319 C 13652,11319 13650,11317 13649,11314 13646,11283 13622,11266 13580,11266 13544,11266 13518,11279 13518,11308 13518,11378 13713,11323 13713,11442 13713,11505 13664,11538 13591,11538 13513,11538 13462,11504 13459,11434 Z "></path>   </g>  </g>  <g class="com.sun.star.drawing.ClosedBezierShape">   <g id="id20">    <rect class="BoundingBox" stroke="none" fill="none" x="13864" y="11222" width="279" height="316"></rect>    <path fill="rgb(31,79,72)" stroke="none" d="M 14087,11532 C 14084,11532 14081,11531 14079,11528 L 14060,11506 C 14036,11525 14006,11537 13971,11537 13914,11537 13864,11508 13864,11451 13864,11403 13898,11378 13934,11357 13916,11335 13903,11312 13903,11288 13903,11252 13933,11222 13987,11222 14031,11222 14066,11246 14067,11287 14067,11324 14035,11344 14001,11363 14011,11374 14023,11388 14036,11405 L 14061,11435 C 14068,11418 14073,11400 14074,11381 14075,11378 14077,11376 14079,11376 L 14118,11376 C 14120,11376 14122,11378 14122,11381 14119,11414 14108,11446 14092,11470 L 14141,11528 C 14142,11530 14141,11532 14139,11532 L 14087,11532 Z M 14035,11476 L 13976,11405 C 13971,11398 13965,11392 13960,11386 13934,11401 13915,11419 13915,11449 13915,11483 13940,11500 13975,11500 13998,11500 14019,11491 14035,11476 Z M 13978,11336 C 14004,11322 14024,11308 14024,11287 14024,11267 14009,11255 13987,11255 13966,11255 13953,11266 13953,11289 13953,11302 13960,11314 13978,11336 Z "></path>   </g>  </g>  <g class="com.sun.star.drawing.ClosedBezierShape">   <g id="id21">    <rect class="BoundingBox" stroke="none" fill="none" x="14285" y="11224" width="255" height="316"></rect>    <path fill="rgb(31,79,72)" stroke="none" d="M 14286,11434 C 14286,11432 14289,11430 14291,11430 L 14336,11430 C 14339,11430 14341,11432 14341,11434 14346,11473 14364,11496 14418,11496 14459,11496 14486,11483 14486,11449 14486,11374 14292,11432 14292,11314 14292,11258 14336,11224 14408,11224 14477,11224 14524,11252 14532,11314 14532,11317 14530,11319 14527,11319 L 14481,11319 C 14478,11319 14476,11317 14475,11314 14472,11283 14448,11266 14406,11266 14370,11266 14344,11279 14344,11308 14344,11378 14539,11323 14539,11442 14539,11505 14491,11538 14417,11538 14339,11538 14289,11504 14286,11434 Z "></path>   </g>  </g>  <g class="com.sun.star.drawing.ClosedBezierShape">   <g id="id22">    <rect class="BoundingBox" stroke="none" fill="none" x="14574" y="11230" width="280" height="303"></rect>    <path fill="rgb(31,79,72)" stroke="none" d="M 14803,11532 C 14801,11532 14798,11530 14797,11528 L 14771,11449 14652,11449 14627,11528 C 14626,11530 14624,11532 14621,11532 L 14577,11532 C 14575,11532 14573,11530 14574,11528 L 14676,11235 C 14677,11232 14680,11230 14683,11230 L 14744,11230 C 14746,11230 14749,11232 14750,11235 L 14852,11528 C 14853,11530 14852,11532 14849,11532 L 14803,11532 Z M 14757,11406 L 14711,11268 14667,11406 14757,11406 Z "></path>   </g>  </g>  <g class="com.sun.star.drawing.ClosedBezierShape">   <g id="id23">    <rect class="BoundingBox" stroke="none" fill="none" x="14898" y="11230" width="188" height="303"></rect>    <path fill="rgb(31,79,72)" stroke="none" d="M 14902,11532 C 14900,11532 14898,11530 14898,11527 L 14900,11379 14898,11235 C 14898,11232 14900,11230 14902,11230 L 14947,11230 C 14950,11230 14952,11232 14952,11235 L 14950,11375 14952,11491 15080,11491 C 15082,11491 15084,11493 15084,11495 L 15084,11527 C 15084,11530 15082,11532 15080,11532 L 14902,11532 Z "></path>   </g>  </g>  <g class="com.sun.star.drawing.ClosedBezierShape">   <g id="id24">    <rect class="BoundingBox" stroke="none" fill="none" x="15112" y="11230" width="280" height="303"></rect>    <path fill="rgb(31,79,72)" stroke="none" d="M 15341,11532 C 15339,11532 15336,11530 15335,11528 L 15309,11449 15191,11449 15165,11528 C 15164,11530 15162,11532 15159,11532 L 15115,11532 C 15113,11532 15111,11530 15112,11528 L 15215,11235 C 15216,11232 15219,11230 15221,11230 L 15282,11230 C 15285,11230 15288,11232 15289,11235 L 15390,11528 C 15391,11530 15390,11532 15387,11532 L 15341,11532 Z M 15295,11406 L 15249,11268 15205,11406 15295,11406 Z "></path>   </g>  </g>  <g class="com.sun.star.drawing.ClosedBezierShape">   <g id="id25">    <rect class="BoundingBox" stroke="none" fill="none" x="15420" y="11230" width="230" height="303"></rect>    <path fill="rgb(31,79,72)" stroke="none" d="M 15511,11532 C 15508,11532 15506,11530 15506,11527 L 15509,11382 15506,11272 15424,11272 C 15422,11272 15420,11270 15420,11268 L 15420,11235 C 15420,11232 15422,11230 15424,11230 L 15644,11230 C 15647,11230 15649,11232 15649,11235 L 15649,11268 C 15649,11270 15647,11272 15644,11272 L 15561,11272 15559,11382 15562,11527 C 15562,11530 15560,11532 15557,11532 L 15511,11532 Z "></path>   </g>  </g>  <g class="com.sun.star.drawing.ClosedBezierShape">   <g id="id26">    <rect class="BoundingBox" stroke="none" fill="none" x="15698" y="11230" width="205" height="304"></rect>    <path fill="rgb(31,79,72)" stroke="none" d="M 15702,11532 C 15700,11532 15698,11530 15698,11527 L 15700,11379 15698,11235 C 15698,11232 15700,11230 15702,11230 L 15894,11230 C 15897,11230 15899,11232 15899,11235 L 15899,11268 C 15899,11270 15897,11272 15894,11272 L 15753,11272 15751,11352 15883,11352 C 15885,11352 15888,11354 15888,11357 L 15888,11388 C 15888,11391 15885,11393 15883,11393 L 15751,11393 15753,11491 15897,11491 C 15900,11491 15902,11493 15902,11495 L 15902,11527 C 15902,11530 15900,11532 15897,11532 L 15702,11532 Z "></path>   </g>  </g>  <g class="com.sun.star.drawing.ClosedBezierShape">   <g id="id27">    <rect class="BoundingBox" stroke="none" fill="none" x="13280" y="9804" width="326" height="301"></rect>    <path fill="rgb(31,79,72)" stroke="none" d="M 13585,10103 C 13593,10078 13600,10052 13604,10026 13603,10016 13603,9991 13603,9979 L 13601,9857 C 13601,9848 13595,9841 13587,9839 13561,9832 13535,9826 13509,9820 13456,9811 13399,9796 13344,9809 13337,9810 13330,9813 13324,9818 13306,9830 13290,9845 13280,9864 13302,9855 13323,9850 13345,9849 13359,9844 13374,9841 13388,9842 13447,9845 13506,9858 13563,9872 L 13565,9980 13565,10012 C 13565,10022 13564,10032 13568,10042 13573,10063 13579,10083 13585,10103 Z "></path>   </g>  </g>  <g class="com.sun.star.drawing.ClosedBezierShape">   <g id="id28">    <rect class="BoundingBox" stroke="none" fill="none" x="13654" y="9814" width="303" height="63"></rect>    <path fill="rgb(31,79,72)" stroke="none" d="M 13930,9836 C 13918,9830 13904,9825 13890,9821 13863,9814 13833,9813 13806,9816 13778,9818 13752,9823 13726,9829 13713,9832 13700,9835 13687,9838 13676,9847 13664,9856 13654,9868 13669,9872 13683,9874 13697,9876 13709,9873 13722,9869 13734,9866 13759,9860 13784,9856 13809,9854 13834,9851 13857,9852 13880,9858 13892,9861 13903,9865 13913,9872 13927,9872 13940,9874 13956,9875 13951,9860 13941,9848 13930,9836 Z "></path>   </g>  </g>  <g class="com.sun.star.drawing.ClosedBezierShape">   <g id="id29">    <rect class="BoundingBox" stroke="none" fill="none" x="13330" y="9887" width="191" height="92"></rect>    <path fill="rgb(31,79,72)" stroke="none" d="M 13498,9909 C 13493,9906 13489,9904 13485,9902 13449,9882 13401,9883 13364,9902 13355,9906 13347,9912 13339,9917 13334,9929 13330,9939 13330,9951 13342,9950 13352,9949 13361,9949 13374,9941 13387,9934 13400,9930 13398,9938 13398,9946 13402,9954 13409,9973 13431,9983 13451,9975 13465,9969 13474,9955 13474,9940 13476,9941 13477,9943 13477,9943 13489,9953 13502,9949 13519,9951 13516,9935 13514,9916 13498,9909 Z "></path>   </g>  </g>  <g class="com.sun.star.drawing.ClosedBezierShape">   <g id="id30">    <rect class="BoundingBox" stroke="none" fill="none" x="13699" y="9887" width="189" height="92"></rect>    <path fill="rgb(31,79,72)" stroke="none" d="M 13846,9943 C 13858,9953 13871,9949 13887,9951 13885,9935 13883,9916 13866,9909 13862,9906 13858,9904 13853,9902 13818,9882 13770,9883 13733,9902 13724,9906 13716,9912 13708,9917 13703,9929 13699,9939 13699,9951 13711,9950 13720,9949 13730,9949 13738,9943 13749,9938 13759,9934 13757,9940 13758,9947 13761,9954 13768,9973 13790,9983 13810,9975 13826,9969 13835,9952 13833,9935 13836,9936 13839,9938 13841,9939 L 13846,9943 Z "></path>   </g>  </g>  <g class="com.sun.star.drawing.ClosedBezierShape">   <g id="id31">    <rect class="BoundingBox" stroke="none" fill="none" x="13524" y="10294" width="196" height="51"></rect>    <path fill="rgb(31,79,72)" stroke="none" d="M 13673,10338 C 13683,10337 13692,10335 13700,10333 13707,10325 13714,10317 13719,10308 13709,10303 13700,10300 13691,10295 13683,10298 13675,10300 13667,10301 13636,10306 13605,10307 13575,10301 13567,10299 13560,10298 13553,10294 13544,10298 13535,10301 13524,10304 13528,10315 13534,10323 13541,10332 13550,10334 13559,10337 13567,10338 13602,10346 13638,10346 13673,10338 Z "></path>   </g>  </g>  <g class="com.sun.star.drawing.ClosedBezierShape">   <g id="id32">    <rect class="BoundingBox" stroke="none" fill="none" x="13151" y="9884" width="100" height="231"></rect>    <path fill="rgb(31,79,72)" stroke="none" d="M 13236,10079 C 13214,10058 13198,10030 13193,10000 13189,9973 13186,9938 13205,9917 13205,9909 13210,9899 13222,9891 13210,9881 13191,9883 13176,9890 13150,9921 13150,9960 13153,9997 13157,10025 13167,10053 13184,10077 13191,10087 13199,10097 13209,10106 13222,10111 13235,10114 13249,10114 13244,10101 13239,10090 13236,10079 Z "></path>   </g>  </g>  <g class="com.sun.star.drawing.ClosedBezierShape">   <g id="id33">    <rect class="BoundingBox" stroke="none" fill="none" x="13563" y="10407" width="107" height="44"></rect>    <path fill="rgb(31,79,72)" stroke="none" d="M 13646,10409 C 13626,10406 13607,10408 13588,10410 13583,10410 13579,10411 13574,10411 13570,10418 13567,10424 13564,10433 13570,10441 13575,10445 13580,10450 13592,10448 13605,10447 13617,10447 13628,10447 13639,10447 13650,10450 13655,10445 13661,10441 13668,10438 13669,10433 13668,10429 13667,10424 13666,10421 13664,10417 13663,10413 13657,10411 13652,10410 13646,10409 Z "></path>   </g>  </g>  <g class="com.sun.star.drawing.ClosedBezierShape">   <g id="id34">    <rect class="BoundingBox" stroke="none" fill="none" x="13165" y="9271" width="907" height="599"></rect>    <path fill="rgb(31,79,72)" stroke="none" d="M 13205,9865 C 13208,9865 13207,9865 13211,9866 13231,9875 13245,9860 13249,9843 13258,9816 13266,9790 13273,9764 13280,9748 13296,9714 13302,9699 13304,9693 13308,9686 13310,9678 13326,9655 13347,9631 13366,9609 L 13389,9591 C 13397,9602 13411,9607 13424,9598 13461,9574 13506,9560 13549,9550 13605,9538 13663,9533 13720,9528 13758,9525 13797,9523 13834,9529 L 13910,9559 13838,9519 C 13799,9509 13759,9507 13719,9505 13659,9505 13601,9503 13541,9512 13498,9522 13456,9536 13418,9558 13417,9554 13416,9550 13413,9547 13407,9539 13395,9537 13387,9544 L 13341,9581 C 13340,9581 13339,9582 13338,9583 13323,9600 13307,9620 13292,9638 13286,9647 13279,9654 13274,9664 13274,9665 13273,9668 13273,9670 13270,9676 13261,9698 13257,9706 L 13238,9749 C 13230,9775 13223,9802 13214,9826 13212,9826 13209,9826 13206,9826 13202,9808 13204,9788 13204,9770 13206,9744 13217,9677 13221,9649 13220,9633 13216,9617 13210,9601 13210,9600 13209,9599 13209,9597 13210,9595 13212,9593 13214,9591 13221,9585 13229,9579 13236,9572 13242,9564 13241,9552 13233,9545 L 13225,9539 C 13247,9508 13277,9480 13303,9453 13346,9414 13397,9376 13448,9347 13498,9317 13548,9306 13606,9309 13662,9312 13719,9321 13774,9334 13819,9353 13890,9384 13935,9420 13936,9422 13936,9425 13935,9429 13934,9446 13924,9471 13946,9480 13945,9480 13945,9480 13944,9479 13951,9484 13957,9490 13963,9496 13984,9515 14008,9535 14023,9559 14026,9567 14025,9564 14022,9574 14017,9584 14014,9605 14020,9617 14023,9626 14026,9633 14031,9641 14032,9643 14031,9642 14032,9643 14033,9646 14031,9656 14028,9662 14024,9676 14025,9691 14021,9706 14017,9731 14008,9754 13998,9777 L 13989,9745 13988,9743 C 13988,9741 13986,9739 13984,9737 13971,9728 13959,9717 13950,9704 13920,9662 13911,9609 13910,9559 13902,9627 13912,9704 13966,9752 L 13969,9790 C 13969,9791 13970,9793 13971,9794 13978,9809 13994,9823 14014,9814 14035,9802 14040,9776 14048,9755 14056,9728 14062,9703 14064,9674 14071,9658 14073,9640 14065,9623 14061,9615 14054,9605 14054,9597 14055,9596 14056,9592 14058,9588 14072,9560 14055,9533 14036,9513 14015,9491 13994,9470 13970,9452 13972,9439 13976,9426 13972,9411 13971,9404 13965,9395 13960,9391 13941,9376 13921,9364 13901,9353 13863,9331 13824,9313 13784,9297 13695,9279 13606,9261 13515,9278 13425,9303 13353,9362 13283,9419 13274,9428 13261,9441 13253,9450 13232,9472 13212,9492 13193,9517 13187,9525 13180,9537 13182,9548 13183,9553 13187,9558 13191,9561 13182,9569 13174,9577 13168,9588 13167,9592 13166,9595 13167,9600 13167,9605 13171,9611 13174,9614 13178,9623 13181,9636 13182,9647 13178,9673 13175,9699 13171,9725 13168,9758 13147,9873 13205,9865 Z M 13272,9672 L 13272,9671 13272,9672 Z M 13403,9567 C 13403,9566 13404,9566 13404,9566 13404,9566 13403,9566 13403,9567 Z M 13311,9673 C 13311,9674 13310,9676 13310,9678 13310,9676 13310,9674 13311,9673 Z M 14002,9782 C 14005,9783 14004,9784 14003,9783 14002,9783 14002,9783 14002,9782 Z M 13962,9445 L 13960,9445 C 13959,9444 13960,9445 13961,9445 L 13962,9445 Z M 13176,9615 C 13180,9618 13176,9616 13176,9615 Z "></path>   </g>  </g>  <g class="com.sun.star.drawing.ClosedBezierShape">   <g id="id35">    <rect class="BoundingBox" stroke="none" fill="none" x="13199" y="9821" width="936" height="1172"></rect>    <path fill="rgb(31,79,72)" stroke="none" d="M 13981,10272 C 13982,10269 13983,10266 13983,10265 13983,10263 13986,10252 13986,10249 13993,10214 14000,10178 14007,10142 14013,10131 14019,10118 14023,10106 14019,10111 14015,10115 14011,10120 14016,10088 14022,10057 14027,10026 14028,10008 14029,9992 14029,9974 14029,9958 14024,9938 14023,9921 L 14019,9893 C 14030,9898 14038,9905 14042,9912 14048,9914 14052,9919 14055,9926 14061,9937 14062,9955 14062,9968 14061,9993 14055,10020 14044,10043 14040,10052 14035,10061 14029,10069 14028,10081 14026,10093 14023,10106 14036,10104 14049,10098 14060,10091 14068,10081 14074,10070 14079,10059 14089,10036 14096,10012 14098,9987 14101,9963 14102,9938 14090,9909 14084,9896 14072,9883 14057,9876 14041,9875 14028,9880 14019,9889 L 14011,9821 C 14007,9854 14004,9888 14002,9922 14001,9936 14001,9948 14001,9961 13999,9981 13993,10000 13989,10020 13982,10065 13974,10111 13965,10157 13952,10165 13939,10173 13926,10181 13890,10208 13850,10230 13809,10249 13782,10177 13689,10160 13618,10170 13546,10156 13465,10179 13440,10253 13430,10248 13419,10243 13411,10238 13394,10230 13380,10218 13364,10210 13340,10198 13316,10184 13294,10167 13277,10112 13257,10057 13239,10001 13246,10069 13255,10135 13266,10202 13268,10216 13275,10237 13279,10251 13283,10266 13287,10282 13293,10297 L 13296,10301 13297,10303 C 13309,10321 13321,10338 13334,10355 L 13200,10710 C 13198,10716 13199,10722 13202,10728 13208,10736 13220,10739 13229,10733 13260,10713 13292,10691 13327,10680 13329,10680 13327,10680 13329,10680 13339,10683 13352,10691 13362,10698 13407,10729 13458,10756 13504,10786 13515,10796 13526,10805 13537,10815 13571,10852 13607,10893 13617,10944 13615,10959 13615,10975 13617,10991 13624,10920 13672,10871 13716,10822 13726,10809 13736,10796 13746,10783 13800,10750 13858,10721 13909,10686 13916,10682 13924,10679 13928,10678 13929,10678 13930,10678 13930,10678 13930,10678 13931,10679 13932,10680 13948,10694 13978,10728 13993,10744 14008,10758 14022,10778 14041,10785 14050,10789 14062,10783 14066,10774 14066,10773 14067,10772 14067,10771 L 14133,10501 C 14136,10414 14064,10341 14003,10288 13996,10282 13989,10276 13981,10272 Z M 13304,10199 C 13316,10214 13329,10228 13343,10240 13373,10264 13411,10281 13446,10297 13457,10303 13471,10295 13472,10282 13476,10254 13494,10227 13521,10215 13550,10201 13586,10204 13620,10208 13678,10200 13767,10208 13778,10280 13780,10292 13793,10299 13804,10294 13856,10271 13903,10244 13949,10212 13951,10210 13954,10208 13956,10206 13953,10222 13950,10238 13946,10254 13946,10257 13944,10261 13944,10264 13925,10306 13891,10344 13860,10380 13829,10415 13796,10450 13761,10482 13750,10490 13732,10494 13717,10497 13663,10508 13604,10510 13550,10499 13468,10476 13376,10350 13328,10281 13320,10261 13315,10239 13309,10217 13308,10211 13306,10205 13304,10199 Z M 13333,10642 C 13324,10641 13314,10644 13307,10646 13289,10653 13272,10662 13256,10671 L 13347,10429 C 13355,10462 13363,10494 13371,10527 13371,10527 13380,10568 13381,10568 13390,10609 13405,10651 13427,10688 13435,10701 13444,10714 13453,10727 13452,10726 13451,10725 13450,10724 13429,10703 13410,10680 13383,10666 13367,10656 13352,10646 13333,10642 Z M 13506,10733 C 13489,10712 13473,10691 13460,10668 13431,10623 13420,10570 13408,10518 13399,10484 13391,10450 13383,10416 13421,10459 13460,10500 13513,10527 13547,10542 13585,10543 13621,10544 13656,10544 13690,10542 13725,10535 13748,10529 13773,10524 13791,10506 L 13801,10497 C 13831,10468 13861,10437 13889,10405 13912,10378 13936,10351 13956,10320 13961,10354 13965,10387 13963,10421 13959,10463 13927,10502 13902,10537 13861,10589 13810,10638 13769,10691 L 13727,10745 C 13682,10801 13630,10864 13618,10937 13614,10886 13584,10840 13555,10799 13538,10778 13524,10754 13506,10733 Z M 14037,10734 C 14031,10729 14026,10723 14021,10718 14007,10703 13978,10670 13963,10656 13934,10622 13893,10650 13865,10668 13841,10688 13812,10711 13783,10735 13802,10710 13822,10686 13842,10664 13872,10630 13903,10597 13932,10560 13961,10521 13990,10484 14000,10434 14004,10400 14000,10366 13996,10332 14046,10378 14095,10442 14096,10492 L 14037,10734 Z "></path>   </g>  </g> </g></svg>