<svg xmlns="http://www.w3.org/2000/svg" xmlns:ooo="http://xml.openoffice.org/svg/export" xmlns:xlink="http://www.w3.org/1999/xlink" xmlns:presentation="http://sun.com/xmlns/staroffice/presentation" xmlns:smil="http://www.w3.org/2001/SMIL20/" xmlns:anim="urn:oasis:names:tc:opendocument:xmlns:animation:1.0" xmlns:svg="urn:oasis:names:tc:opendocument:xmlns:svg-compatible:1.0" width="60.43mm" height="23.35mm" viewBox="0 0 6043 2335" preserveAspectRatio="xMidYMid" fill-rule="evenodd" stroke-width="28.222" stroke-linejoin="round" xml:space="preserve"> <defs class="ClipPathGroup">  <clipPath id="presentation_clip_path" clipPathUnits="userSpaceOnUse">   <rect x="0" y="0" width="6043" height="2335"></rect>  </clipPath>  <clipPath id="presentation_clip_path_shrink" clipPathUnits="userSpaceOnUse">   <rect x="6" y="2" width="6031" height="2331"></rect>  </clipPath> </defs> <defs class="TextShapeIndex">  <g ooo:slide="id1" ooo:id-list="id3 id4 id5 id6 id7 id8 id9 id10 id11 id12 id13 id14 id15 id16 id17 id18 id19 id20 id21 id22 id23 id24 id25 id26 id27 id28 id29 id30 id31 id32 id33 id34 id35"></g> </defs> <defs class="EmbeddedBulletChars">  <g id="bullet-char-template-57356" transform="scale(0.00048828125,-0.00048828125)">   <path d="M 580,1141 L 1163,571 580,0 -4,571 580,1141 Z"></path>  </g>  <g id="bullet-char-template-57354" transform="scale(0.00048828125,-0.00048828125)">   <path d="M 8,1128 L 1137,1128 1137,0 8,0 8,1128 Z"></path>  </g>  <g id="bullet-char-template-10146" transform="scale(0.00048828125,-0.00048828125)">   <path d="M 174,0 L 602,739 174,1481 1456,739 174,0 Z M 1358,739 L 309,1346 659,739 1358,739 Z"></path>  </g>  <g id="bullet-char-template-10132" transform="scale(0.00048828125,-0.00048828125)">   <path d="M 2015,739 L 1276,0 717,0 1260,543 174,543 174,936 1260,936 717,1481 1274,1481 2015,739 Z"></path>  </g>  <g id="bullet-char-template-10007" transform="scale(0.00048828125,-0.00048828125)">   <path d="M 0,-2 C -7,14 -16,27 -25,37 L 356,567 C 262,823 215,952 215,954 215,979 228,992 255,992 264,992 276,990 289,987 310,991 331,999 354,1012 L 381,999 492,748 772,1049 836,1024 860,1049 C 881,1039 901,1025 922,1006 886,937 835,863 770,784 769,783 710,716 594,584 L 774,223 C 774,196 753,168 711,139 L 727,119 C 717,90 699,76 672,76 641,76 570,178 457,381 L 164,-76 C 142,-110 111,-127 72,-127 30,-127 9,-110 8,-76 1,-67 -2,-52 -2,-32 -2,-23 -1,-13 0,-2 Z"></path>  </g>  <g id="bullet-char-template-10004" transform="scale(0.00048828125,-0.00048828125)">   <path d="M 285,-33 C 182,-33 111,30 74,156 52,228 41,333 41,471 41,549 55,616 82,672 116,743 169,778 240,778 293,778 328,747 346,684 L 369,508 C 377,444 397,411 428,410 L 1163,1116 C 1174,1127 1196,1133 1229,1133 1271,1133 1292,1118 1292,1087 L 1292,965 C 1292,929 1282,901 1262,881 L 442,47 C 390,-6 338,-33 285,-33 Z"></path>  </g>  <g id="bullet-char-template-9679" transform="scale(0.00048828125,-0.00048828125)">   <path d="M 813,0 C 632,0 489,54 383,161 276,268 223,411 223,592 223,773 276,916 383,1023 489,1130 632,1184 813,1184 992,1184 1136,1130 1245,1023 1353,916 1407,772 1407,592 1407,412 1353,268 1245,161 1136,54 992,0 813,0 Z"></path>  </g>  <g id="bullet-char-template-8226" transform="scale(0.00048828125,-0.00048828125)">   <path d="M 346,457 C 273,457 209,483 155,535 101,586 74,649 74,723 74,796 101,859 155,911 209,963 273,989 346,989 419,989 480,963 531,910 582,859 608,796 608,723 608,648 583,586 532,535 482,483 420,457 346,457 Z"></path>  </g>  <g id="bullet-char-template-8211" transform="scale(0.00048828125,-0.00048828125)">   <path d="M -4,459 L 1135,459 1135,606 -4,606 -4,459 Z"></path>  </g>  <g id="bullet-char-template-61548" transform="scale(0.00048828125,-0.00048828125)">   <path d="M 173,740 C 173,903 231,1043 346,1159 462,1274 601,1332 765,1332 928,1332 1067,1274 1183,1159 1299,1043 1357,903 1357,740 1357,577 1299,437 1183,322 1067,206 928,148 765,148 601,148 462,206 346,322 231,437 173,577 173,740 Z"></path>  </g> </defs> <g>  <g id="id2" class="Master_Slide">   <g id="bg-id2" class="Background"></g>   <g id="bo-id2" class="BackgroundObjects"></g>  </g> </g> <g class="SlideGroup">  <g>   <g id="container-id1">    <g id="id1" class="Slide" clip-path="url(#presentation_clip_path)">     <g class="Page">      <g class="Group">       <g class="com.sun.star.drawing.ClosedBezierShape">        <g id="id3">         <rect class="BoundingBox" stroke="none" fill="none" x="12" y="288" width="823" height="1091"></rect>         <path fill="rgb(255,255,255)" stroke="none" d="M 13,710 C 13,778 54,868 159,922 166,925 175,922 178,914 179,912 180,910 181,908 186,899 186,889 183,880 168,843 158,785 158,731 158,540 267,399 461,399 575,399 645,463 645,594 645,765 554,874 380,926 380,925 381,924 381,923 426,766 461,643 534,497 537,489 537,477 532,470 531,467 529,465 528,463 523,455 514,452 507,455 463,483 419,511 375,540 298,587 254,738 232,819 181,1001 131,1184 80,1366 77,1374 83,1378 90,1377 145,1361 199,1345 254,1329 263,1326 270,1319 273,1310 298,1221 322,1131 347,1042 572,976 834,788 834,547 834,381 691,289 535,289 270,289 13,485 13,710 Z "></path>        </g>       </g>       <g class="com.sun.star.drawing.ClosedBezierShape">        <g id="id4">         <rect class="BoundingBox" stroke="none" fill="none" x="724" y="449" width="2127" height="1241"></rect>         <path fill="rgb(255,255,255)" stroke="none" d="M 2790,938 C 2781,935 2774,943 2769,952 2764,961 2760,971 2756,981 2691,1122 2615,1209 2572,1209 2546,1209 2534,1195 2534,1167 2534,1152 2538,1129 2547,1100 2565,1039 2583,979 2602,919 2635,810 2658,704 2692,636 2706,610 2709,601 2709,593 2709,586 2701,580 2691,582 2644,590 2597,599 2550,608 2529,613 2503,613 2495,633 2493,640 2491,647 2489,654 2461,627 2433,619 2401,619 2221,619 2055,902 2032,1104 1973,1158 1901,1189 1814,1216 1810,1218 1808,1215 1811,1212 1946,1095 1974,906 1974,783 1974,687 1927,617 1841,617 1783,617 1740,627 1693,670 1758,538 1758,538 1789,488 1794,480 1792,467 1788,458 1785,451 1776,448 1768,451 1720,470 1673,490 1626,510 1616,514 1591,530 1589,533 1545,612 1526,644 1468,847 1446,922 1424,998 1403,1074 1352,1160 1301,1209 1268,1209 1242,1209 1230,1195 1230,1167 1230,1152 1234,1129 1243,1100 1261,1039 1279,979 1298,919 1331,810 1354,704 1388,636 1402,610 1405,601 1405,593 1405,586 1397,580 1387,582 1340,590 1293,599 1246,608 1226,613 1199,613 1191,633 1189,640 1187,647 1186,654 1157,627 1129,619 1097,619 903,619 725,949 725,1150 725,1265 778,1339 881,1339 938,1339 1009,1306 1063,1224 1075,1282 1107,1322 1163,1334 1175,1337 1189,1339 1202,1339 1254,1339 1300,1320 1342,1286 1306,1412 1270,1538 1234,1663 1228,1685 1234,1691 1254,1688 1303,1679 1352,1670 1402,1661 1411,1660 1418,1652 1421,1644 1497,1370 1574,1095 1651,821 1678,770 1706,734 1745,734 1767,734 1779,755 1779,817 1779,931 1694,1237 1588,1264 1574,1266 1572,1272 1569,1284 1565,1298 1561,1311 1557,1324 1554,1331 1560,1339 1567,1339 1762,1339 1917,1314 2037,1219 2055,1295 2105,1339 2184,1339 2242,1339 2313,1306 2367,1224 2378,1282 2411,1322 2467,1334 2479,1337 2492,1339 2506,1339 2642,1339 2738,1209 2824,1027 2831,1010 2838,994 2846,978 2854,962 2849,956 2837,953 2821,948 2805,943 2790,938 Z M 1162,738 C 1140,816 1119,894 1098,972 1094,982 1091,992 1088,1003 1055,1122 993,1213 949,1213 934,1213 921,1197 921,1160 921,1038 1021,715 1128,715 1143,715 1156,721 1162,737 1162,737 1162,737 1162,738 Z M 2466,738 C 2444,816 2423,894 2402,972 2398,982 2395,992 2392,1003 2359,1122 2297,1213 2253,1213 2238,1213 2224,1197 2224,1160 2224,1038 2325,715 2432,715 2447,715 2460,721 2466,737 2466,737 2466,737 2466,738 Z "></path>        </g>       </g>       <g class="com.sun.star.drawing.ClosedBezierShape">        <g id="id5">         <rect class="BoundingBox" stroke="none" fill="none" x="4217" y="288" width="1103" height="1410"></rect>         <path fill="rgb(255,255,255)" stroke="none" d="M 5278,1418 C 5270,1414 5260,1417 5256,1422 5250,1430 5245,1438 5239,1446 5204,1498 5164,1529 5114,1529 4985,1529 4840,1332 4685,1192 4746,1117 4809,1000 4852,840 4866,787 4880,735 4893,683 4946,482 4983,384 5057,384 5115,384 5139,442 5139,509 5139,609 5081,723 4970,782 4960,788 4957,794 4958,805 4960,816 4962,827 4964,839 4965,851 4973,852 4980,849 5219,775 5318,639 5318,489 5318,357 5208,289 5097,289 4905,289 4767,415 4699,660 4685,713 4670,767 4655,821 4625,929 4593,1027 4560,1102 4510,1074 4460,1056 4406,1056 4309,1056 4217,1113 4217,1205 4217,1275 4267,1340 4400,1340 4486,1340 4550,1317 4606,1272 4749,1427 4889,1696 5062,1696 5118,1696 5164,1670 5207,1616 5225,1593 5242,1566 5260,1532 5274,1505 5289,1477 5303,1449 5308,1442 5305,1433 5297,1428 5291,1425 5284,1422 5278,1418 Z M 4357,1201 C 4357,1168 4378,1155 4414,1155 4446,1155 4477,1167 4508,1185 4485,1214 4460,1239 4414,1239 4378,1239 4357,1229 4357,1201 Z "></path>        </g>       </g>       <g class="com.sun.star.drawing.ClosedBezierShape">        <g id="id6">         <rect class="BoundingBox" stroke="none" fill="none" x="5203" y="583" width="825" height="759"></rect>         <path fill="rgb(255,255,255)" stroke="none" d="M 5966,922 C 5957,919 5949,926 5946,933 5938,949 5931,966 5923,983 5857,1125 5780,1211 5739,1211 5712,1211 5700,1197 5700,1169 5700,1154 5705,1131 5714,1102 5740,1013 5766,924 5792,836 5811,765 5831,694 5850,624 5859,594 5853,580 5829,584 5782,595 5734,606 5687,617 5678,618 5671,625 5668,634 5650,701 5631,768 5613,836 5593,901 5574,966 5554,1032 5523,1118 5475,1205 5424,1205 5398,1205 5391,1184 5391,1158 5391,1121 5404,1078 5424,1017 5464,886 5503,755 5543,624 5554,591 5540,581 5521,584 5472,595 5422,606 5373,617 5364,618 5357,625 5354,634 5321,746 5288,858 5255,970 5233,1045 5203,1136 5203,1209 5203,1283 5233,1340 5327,1340 5419,1340 5486,1291 5533,1224 5546,1294 5589,1340 5672,1340 5804,1340 5918,1194 5999,1014 6008,993 6017,973 6026,953 6029,947 6023,939 6017,938 6000,932 5983,927 5966,922 Z "></path>        </g>       </g>       <g class="com.sun.star.drawing.ClosedBezierShape">        <g id="id7">         <rect class="BoundingBox" stroke="none" fill="none" x="5213" y="603" width="815" height="750"></rect>         <path fill="rgb(255,255,255)" stroke="none" d="M 5833,604 C 5856,600 5862,615 5853,644 5834,714 5815,784 5796,854 5770,941 5745,1028 5719,1116 5710,1145 5705,1167 5705,1182 5705,1210 5717,1223 5743,1223 5784,1223 5860,1139 5925,999 5932,983 5940,967 5947,951 5950,943 5958,936 5967,939 5984,944 6000,949 6017,955 6023,956 6029,964 6026,970 6017,990 6008,1010 5999,1030 5919,1207 5808,1351 5677,1351 5595,1351 5552,1305 5539,1237 5492,1302 5427,1351 5336,1351 5242,1351 5213,1295 5213,1222 5213,1150 5242,1060 5264,986 5297,875 5329,764 5362,654 5365,645 5372,638 5381,637 5430,626 5478,615 5527,604 5546,602 5560,612 5549,644 5510,773 5470,902 5431,1032 5412,1092 5399,1135 5399,1169 5399,1197 5406,1218 5431,1218 5482,1218 5529,1132 5560,1047 5579,982 5599,918 5618,854 5636,787 5654,720 5672,654 5675,645 5682,638 5691,637 5738,626 5786,615 5833,604 Z "></path>        </g>       </g>       <g class="com.sun.star.drawing.ClosedBezierShape">        <g id="id8">         <rect class="BoundingBox" stroke="none" fill="none" x="69" y="1970" width="242" height="304"></rect>         <path fill="rgb(255,255,255)" stroke="none" d="M 74,2272 C 72,2272 70,2270 70,2267 71,2218 71,2168 72,2119 71,2071 71,2023 70,1975 70,1972 72,1970 74,1970 115,1970 155,1970 196,1970 257,1970 301,1994 301,2045 301,2081 282,2102 247,2112 291,2121 310,2148 310,2182 310,2246 256,2272 197,2272 156,2272 115,2272 74,2272 Z M 122,2095 C 147,2095 171,2095 196,2095 228,2095 248,2082 248,2053 248,2024 226,2010 196,2010 172,2010 148,2010 124,2010 123,2038 123,2067 122,2095 Z M 124,2233 C 148,2233 172,2233 196,2233 230,2233 256,2220 256,2182 256,2146 228,2134 196,2134 171,2134 147,2134 122,2134 123,2167 123,2200 124,2233 Z "></path>        </g>       </g>       <g class="com.sun.star.drawing.ClosedBezierShape">        <g id="id9">         <rect class="BoundingBox" stroke="none" fill="none" x="360" y="1970" width="238" height="310"></rect>         <path fill="rgb(255,255,255)" stroke="none" d="M 363,2158 C 363,2129 363,2100 363,2071 362,2039 362,2007 361,1975 361,1972 364,1970 366,1970 381,1970 397,1970 412,1970 415,1970 417,1972 417,1975 416,2007 416,2038 415,2070 415,2099 416,2129 416,2158 416,2205 434,2234 480,2234 528,2234 548,2205 548,2158 548,2129 548,2100 548,2071 547,2039 547,2007 546,1975 546,1972 548,1970 551,1970 565,1970 578,1970 592,1970 595,1970 597,1972 597,1975 597,2007 596,2039 596,2071 596,2100 596,2129 596,2158 596,2235 557,2278 480,2278 402,2278 362,2235 363,2158 Z "></path>        </g>       </g>       <g class="com.sun.star.drawing.ClosedBezierShape">        <g id="id10">         <rect class="BoundingBox" stroke="none" fill="none" x="657" y="1970" width="242" height="304"></rect>         <path fill="rgb(255,255,255)" stroke="none" d="M 803,2212 C 791,2193 778,2174 766,2155 748,2155 730,2155 712,2155 712,2192 713,2230 713,2267 713,2270 711,2272 709,2272 694,2272 678,2272 663,2272 660,2272 658,2270 658,2267 659,2218 659,2169 660,2120 659,2072 659,2023 658,1975 658,1972 660,1970 663,1970 701,1970 739,1970 777,1970 849,1970 891,2002 891,2063 891,2109 865,2139 822,2150 847,2189 872,2229 897,2268 899,2270 897,2272 895,2272 878,2272 861,2272 844,2272 841,2272 838,2270 836,2268 825,2249 814,2231 803,2212 Z M 713,2012 C 712,2046 712,2081 711,2115 734,2115 758,2115 781,2115 815,2115 840,2100 840,2064 840,2029 818,2012 780,2012 758,2012 735,2012 713,2012 Z "></path>        </g>       </g>       <g class="com.sun.star.drawing.ClosedBezierShape">        <g id="id11">         <rect class="BoundingBox" stroke="none" fill="none" x="940" y="1964" width="284" height="316"></rect>         <path fill="rgb(255,255,255)" stroke="none" d="M 941,2121 C 941,2025 999,1964 1084,1964 1155,1964 1201,2000 1216,2062 1217,2065 1215,2067 1213,2067 1197,2067 1182,2067 1167,2067 1165,2067 1162,2065 1161,2062 1152,2025 1125,2006 1084,2006 1029,2006 996,2050 996,2121 996,2192 1030,2236 1086,2236 1137,2236 1166,2205 1167,2152 1139,2152 1112,2152 1085,2152 1083,2152 1081,2150 1081,2148 1081,2137 1081,2127 1081,2116 1081,2113 1083,2111 1085,2111 1129,2111 1173,2111 1218,2111 1221,2111 1223,2113 1223,2116 1224,2224 1174,2278 1085,2278 1000,2278 941,2215 941,2121 Z "></path>        </g>       </g>       <g class="com.sun.star.drawing.ClosedBezierShape">        <g id="id12">         <rect class="BoundingBox" stroke="none" fill="none" x="1278" y="1970" width="207" height="304"></rect>         <path fill="rgb(255,255,255)" stroke="none" d="M 1284,2272 C 1282,2272 1279,2270 1279,2267 1280,2218 1281,2168 1282,2119 1281,2071 1280,2023 1279,1975 1279,1972 1282,1970 1284,1970 1348,1970 1412,1970 1476,1970 1478,1970 1481,1972 1481,1975 1481,1986 1481,1997 1481,2008 1481,2010 1478,2012 1476,2012 1428,2012 1381,2012 1334,2012 1333,2039 1332,2065 1332,2092 1376,2092 1420,2092 1465,2092 1467,2092 1469,2094 1469,2097 1469,2107 1469,2118 1469,2128 1469,2131 1467,2133 1465,2133 1420,2133 1376,2133 1332,2133 1332,2166 1333,2198 1334,2231 1382,2231 1430,2231 1479,2231 1482,2231 1484,2233 1484,2235 1484,2246 1484,2256 1484,2267 1484,2270 1482,2272 1479,2272 1414,2272 1349,2272 1284,2272 Z "></path>        </g>       </g>       <g class="com.sun.star.drawing.ClosedBezierShape">        <g id="id13">         <rect class="BoundingBox" stroke="none" fill="none" x="1540" y="1970" width="242" height="304"></rect>         <path fill="rgb(255,255,255)" stroke="none" d="M 1686,2212 C 1673,2193 1661,2174 1649,2155 1630,2155 1612,2155 1594,2155 1594,2192 1595,2230 1596,2267 1596,2270 1593,2272 1591,2272 1576,2272 1561,2272 1546,2272 1543,2272 1541,2270 1541,2267 1541,2218 1542,2169 1543,2120 1542,2072 1541,2023 1541,1975 1541,1972 1543,1970 1546,1970 1584,1970 1622,1970 1660,1970 1732,1970 1774,2002 1774,2063 1774,2109 1749,2139 1705,2150 1730,2189 1755,2229 1780,2268 1782,2270 1780,2272 1778,2272 1761,2272 1744,2272 1727,2272 1724,2272 1721,2270 1719,2268 1708,2249 1697,2231 1686,2212 Z M 1595,2012 C 1594,2046 1593,2081 1593,2115 1616,2115 1640,2115 1664,2115 1698,2115 1723,2100 1723,2064 1723,2029 1701,2012 1663,2012 1640,2012 1617,2012 1595,2012 Z "></path>        </g>       </g>       <g class="com.sun.star.drawing.ClosedBezierShape">        <g id="id14">         <rect class="BoundingBox" stroke="none" fill="none" x="1819" y="2217" width="65" height="104"></rect>         <path fill="rgb(255,255,255)" stroke="none" d="M 1824,2319 C 1822,2319 1819,2317 1820,2314 1824,2299 1828,2285 1832,2270 1832,2254 1832,2237 1832,2221 1832,2219 1834,2217 1837,2217 1850,2217 1864,2217 1878,2217 1881,2217 1883,2219 1883,2221 1883,2235 1883,2250 1883,2264 1883,2267 1882,2271 1881,2273 1871,2287 1861,2301 1851,2315 1849,2317 1847,2319 1844,2319 1837,2319 1830,2319 1824,2319 Z "></path>        </g>       </g>       <g class="com.sun.star.drawing.ClosedBezierShape">        <g id="id15">         <rect class="BoundingBox" stroke="none" fill="none" x="2027" y="1970" width="383" height="304"></rect>         <path fill="rgb(255,255,255)" stroke="none" d="M 2276,2272 C 2274,2272 2271,2270 2271,2267 2252,2193 2234,2118 2216,2044 2199,2118 2182,2193 2166,2267 2165,2270 2163,2272 2160,2272 2141,2272 2123,2272 2105,2272 2102,2272 2100,2270 2099,2267 2075,2170 2051,2072 2028,1975 2027,1972 2029,1970 2031,1970 2045,1970 2060,1970 2075,1970 2078,1970 2080,1972 2081,1975 2099,2058 2117,2140 2135,2223 2152,2140 2169,2058 2187,1975 2188,1972 2190,1970 2193,1970 2210,1970 2228,1970 2246,1970 2248,1970 2251,1972 2251,1975 2268,2058 2286,2141 2304,2224 2322,2141 2340,2058 2359,1975 2359,1972 2362,1970 2365,1970 2378,1970 2391,1970 2405,1970 2408,1970 2410,1972 2409,1975 2384,2072 2360,2170 2336,2267 2335,2270 2333,2272 2330,2272 2312,2272 2294,2272 2276,2272 Z "></path>        </g>       </g>       <g class="com.sun.star.drawing.ClosedBezierShape">        <g id="id16">         <rect class="BoundingBox" stroke="none" fill="none" x="2439" y="1970" width="242" height="304"></rect>         <path fill="rgb(255,255,255)" stroke="none" d="M 2584,2212 C 2572,2193 2560,2174 2548,2155 2529,2155 2511,2155 2493,2155 2493,2192 2494,2230 2495,2267 2495,2270 2493,2272 2490,2272 2475,2272 2460,2272 2445,2272 2442,2272 2440,2270 2440,2267 2440,2218 2441,2169 2442,2120 2441,2072 2440,2023 2440,1975 2440,1972 2442,1970 2445,1970 2482,1970 2520,1970 2558,1970 2631,1970 2674,2002 2674,2063 2674,2109 2648,2139 2604,2150 2629,2189 2654,2229 2680,2268 2681,2270 2680,2272 2677,2272 2660,2272 2643,2272 2626,2272 2623,2272 2620,2270 2619,2268 2607,2249 2595,2231 2584,2212 Z M 2494,2012 C 2493,2046 2493,2081 2493,2115 2516,2115 2539,2115 2562,2115 2596,2115 2622,2100 2622,2064 2622,2029 2599,2012 2561,2012 2538,2012 2516,2012 2494,2012 Z "></path>        </g>       </g>       <g class="com.sun.star.drawing.ClosedBezierShape">        <g id="id17">         <rect class="BoundingBox" stroke="none" fill="none" x="2728" y="1970" width="280" height="304"></rect>         <path fill="rgb(255,255,255)" stroke="none" d="M 2959,2272 C 2957,2272 2954,2270 2953,2268 2944,2242 2935,2215 2927,2189 2887,2189 2847,2189 2808,2189 2799,2215 2791,2242 2783,2268 2782,2270 2780,2272 2777,2272 2762,2272 2747,2272 2732,2272 2730,2272 2728,2270 2729,2268 2763,2170 2797,2073 2832,1975 2833,1972 2836,1970 2839,1970 2859,1970 2879,1970 2900,1970 2902,1970 2905,1972 2906,1975 2939,2073 2973,2170 3007,2268 3008,2270 3007,2272 3004,2272 2989,2272 2974,2272 2959,2272 Z M 2913,2146 C 2897,2100 2882,2054 2867,2008 2852,2054 2837,2100 2823,2146 2853,2146 2883,2146 2913,2146 Z "></path>        </g>       </g>       <g class="com.sun.star.drawing.ClosedBezierShape">        <g id="id18">         <rect class="BoundingBox" stroke="none" fill="none" x="3060" y="1970" width="224" height="304"></rect>         <path fill="rgb(255,255,255)" stroke="none" d="M 3113,2163 C 3114,2198 3115,2232 3115,2267 3115,2270 3113,2272 3110,2272 3095,2272 3080,2272 3065,2272 3062,2272 3060,2270 3060,2267 3061,2218 3062,2169 3063,2120 3062,2072 3061,2023 3060,1975 3060,1972 3062,1970 3065,1970 3100,1970 3135,1970 3170,1970 3241,1970 3282,2003 3282,2066 3282,2128 3239,2163 3171,2163 3152,2163 3133,2163 3113,2163 Z M 3114,2012 C 3114,2049 3114,2085 3113,2122 3134,2122 3154,2122 3174,2122 3207,2122 3231,2107 3231,2067 3231,2029 3210,2012 3172,2012 3153,2012 3134,2012 3114,2012 Z "></path>        </g>       </g>       <g class="com.sun.star.drawing.ClosedBezierShape">        <g id="id19">         <rect class="BoundingBox" stroke="none" fill="none" x="3324" y="1964" width="256" height="316"></rect>         <path fill="rgb(255,255,255)" stroke="none" d="M 3324,2174 C 3324,2172 3327,2170 3329,2170 3345,2170 3360,2170 3375,2170 3378,2170 3380,2172 3380,2174 3385,2213 3403,2236 3457,2236 3499,2236 3525,2223 3525,2189 3525,2114 3330,2172 3330,2054 3330,1998 3375,1964 3447,1964 3516,1964 3562,1992 3570,2054 3570,2057 3568,2059 3566,2059 3551,2059 3536,2059 3520,2059 3517,2059 3515,2057 3514,2054 3511,2023 3487,2006 3445,2006 3409,2006 3383,2019 3383,2048 3383,2118 3578,2063 3578,2182 3578,2245 3529,2278 3456,2278 3378,2278 3327,2244 3324,2174 Z "></path>        </g>       </g>       <g class="com.sun.star.drawing.ClosedBezierShape">        <g id="id20">         <rect class="BoundingBox" stroke="none" fill="none" x="3729" y="1962" width="279" height="317"></rect>         <path fill="rgb(255,255,255)" stroke="none" d="M 3952,2272 C 3949,2272 3946,2271 3944,2268 3938,2261 3932,2253 3925,2246 3901,2265 3871,2277 3836,2277 3779,2277 3729,2248 3729,2191 3729,2143 3763,2118 3799,2097 3781,2075 3768,2052 3768,2028 3768,1992 3798,1962 3852,1962 3896,1962 3931,1986 3932,2027 3932,2064 3900,2084 3866,2103 3876,2114 3888,2128 3901,2145 3910,2155 3918,2165 3926,2175 3933,2158 3938,2140 3939,2121 3940,2118 3942,2116 3944,2116 3957,2116 3970,2116 3983,2116 3985,2116 3987,2118 3987,2121 3984,2154 3973,2186 3957,2210 3974,2229 3990,2249 4006,2268 4007,2270 4006,2272 4004,2272 3987,2272 3970,2272 3952,2272 Z M 3900,2216 C 3881,2192 3861,2169 3841,2145 3836,2138 3830,2132 3825,2126 3799,2141 3780,2159 3780,2189 3780,2223 3805,2240 3840,2240 3863,2240 3884,2231 3900,2216 Z M 3843,2076 C 3869,2062 3889,2048 3889,2027 3889,2007 3874,1995 3852,1995 3831,1995 3818,2006 3818,2029 3818,2042 3825,2054 3843,2076 Z "></path>        </g>       </g>       <g class="com.sun.star.drawing.ClosedBezierShape">        <g id="id21">         <rect class="BoundingBox" stroke="none" fill="none" x="4151" y="1964" width="255" height="316"></rect>         <path fill="rgb(255,255,255)" stroke="none" d="M 4151,2174 C 4151,2172 4154,2170 4156,2170 4171,2170 4186,2170 4201,2170 4204,2170 4206,2172 4206,2174 4211,2213 4229,2236 4283,2236 4324,2236 4351,2223 4351,2189 4351,2114 4157,2172 4157,2054 4157,1998 4201,1964 4273,1964 4342,1964 4389,1992 4397,2054 4397,2057 4395,2059 4392,2059 4377,2059 4362,2059 4346,2059 4343,2059 4341,2057 4340,2054 4337,2023 4313,2006 4271,2006 4235,2006 4209,2019 4209,2048 4209,2118 4404,2063 4404,2182 4404,2245 4356,2278 4282,2278 4204,2278 4154,2244 4151,2174 Z "></path>        </g>       </g>       <g class="com.sun.star.drawing.ClosedBezierShape">        <g id="id22">         <rect class="BoundingBox" stroke="none" fill="none" x="4438" y="1970" width="281" height="304"></rect>         <path fill="rgb(255,255,255)" stroke="none" d="M 4668,2272 C 4666,2272 4663,2270 4662,2268 4654,2242 4645,2215 4636,2189 4597,2189 4557,2189 4517,2189 4509,2215 4501,2242 4492,2268 4491,2270 4489,2272 4486,2272 4472,2272 4457,2272 4442,2272 4440,2272 4438,2270 4439,2268 4473,2170 4507,2073 4541,1975 4542,1972 4545,1970 4548,1970 4569,1970 4589,1970 4609,1970 4611,1970 4614,1972 4615,1975 4649,2073 4683,2170 4717,2268 4718,2270 4717,2272 4714,2272 4699,2272 4684,2272 4668,2272 Z M 4622,2146 C 4607,2100 4592,2054 4576,2008 4562,2054 4547,2100 4532,2146 4562,2146 4592,2146 4622,2146 Z "></path>        </g>       </g>       <g class="com.sun.star.drawing.ClosedBezierShape">        <g id="id23">         <rect class="BoundingBox" stroke="none" fill="none" x="4763" y="1970" width="188" height="304"></rect>         <path fill="rgb(255,255,255)" stroke="none" d="M 4767,2272 C 4765,2272 4763,2270 4763,2267 4764,2218 4765,2168 4765,2119 4765,2071 4764,2023 4763,1975 4763,1972 4765,1970 4767,1970 4782,1970 4797,1970 4812,1970 4815,1970 4817,1972 4817,1975 4817,2022 4816,2068 4815,2115 4816,2154 4817,2192 4817,2231 4860,2231 4903,2231 4945,2231 4947,2231 4949,2233 4949,2235 4949,2246 4949,2256 4949,2267 4949,2270 4947,2272 4945,2272 4886,2272 4827,2272 4767,2272 Z "></path>        </g>       </g>       <g class="com.sun.star.drawing.ClosedBezierShape">        <g id="id24">         <rect class="BoundingBox" stroke="none" fill="none" x="4976" y="1970" width="281" height="304"></rect>         <path fill="rgb(255,255,255)" stroke="none" d="M 5206,2272 C 5204,2272 5201,2270 5200,2268 5191,2242 5183,2215 5174,2189 5135,2189 5095,2189 5056,2189 5047,2215 5039,2242 5030,2268 5029,2270 5027,2272 5024,2272 5010,2272 4995,2272 4980,2272 4978,2272 4976,2270 4977,2268 5012,2170 5046,2073 5080,1975 5081,1972 5084,1970 5086,1970 5106,1970 5127,1970 5147,1970 5150,1970 5153,1972 5154,1975 5188,2073 5221,2170 5255,2268 5256,2270 5255,2272 5252,2272 5237,2272 5221,2272 5206,2272 Z M 5160,2146 C 5145,2100 5129,2054 5114,2008 5099,2054 5085,2100 5070,2146 5100,2146 5130,2146 5160,2146 Z "></path>        </g>       </g>       <g class="com.sun.star.drawing.ClosedBezierShape">        <g id="id25">         <rect class="BoundingBox" stroke="none" fill="none" x="5285" y="1970" width="231" height="304"></rect>         <path fill="rgb(255,255,255)" stroke="none" d="M 5376,2272 C 5373,2272 5371,2270 5371,2267 5372,2219 5373,2170 5374,2122 5373,2085 5372,2049 5371,2012 5344,2012 5316,2012 5289,2012 5287,2012 5285,2010 5285,2008 5285,1997 5285,1986 5285,1975 5285,1972 5287,1970 5289,1970 5362,1970 5436,1970 5509,1970 5512,1970 5514,1972 5514,1975 5514,1986 5514,1997 5514,2008 5514,2010 5512,2012 5509,2012 5481,2012 5454,2012 5426,2012 5425,2049 5425,2085 5424,2122 5425,2170 5426,2219 5427,2267 5427,2270 5425,2272 5422,2272 5407,2272 5391,2272 5376,2272 Z "></path>        </g>       </g>       <g class="com.sun.star.drawing.ClosedBezierShape">        <g id="id26">         <rect class="BoundingBox" stroke="none" fill="none" x="5563" y="1970" width="206" height="304"></rect>         <path fill="rgb(255,255,255)" stroke="none" d="M 5567,2272 C 5565,2272 5563,2270 5563,2267 5564,2218 5564,2168 5565,2119 5564,2071 5564,2023 5563,1975 5563,1972 5565,1970 5567,1970 5631,1970 5695,1970 5759,1970 5762,1970 5764,1972 5764,1975 5764,1986 5764,1997 5764,2008 5764,2010 5762,2012 5759,2012 5712,2012 5665,2012 5618,2012 5617,2039 5617,2065 5616,2092 5660,2092 5704,2092 5748,2092 5750,2092 5753,2094 5753,2097 5753,2107 5753,2118 5753,2128 5753,2131 5750,2133 5748,2133 5704,2133 5660,2133 5616,2133 5617,2166 5617,2198 5618,2231 5666,2231 5714,2231 5762,2231 5765,2231 5767,2233 5767,2235 5767,2246 5767,2256 5767,2267 5767,2270 5765,2272 5762,2272 5697,2272 5632,2272 5567,2272 Z "></path>        </g>       </g>       <g class="com.sun.star.drawing.ClosedBezierShape">        <g id="id27">         <rect class="BoundingBox" stroke="none" fill="none" x="3145" y="545" width="326" height="301"></rect>         <path fill="rgb(255,255,255)" stroke="none" d="M 3450,845 C 3458,820 3465,794 3469,768 3468,758 3468,733 3468,721 3468,680 3467,639 3466,599 3466,590 3460,583 3452,581 3426,574 3400,568 3374,562 3321,553 3264,538 3209,551 3202,552 3195,555 3189,560 3171,572 3155,587 3145,606 3167,597 3188,592 3210,591 3224,586 3239,583 3253,584 3312,587 3371,600 3428,614 3429,650 3430,686 3430,722 3430,732 3430,743 3430,754 3430,764 3429,774 3433,784 3438,805 3444,825 3450,845 Z "></path>        </g>       </g>       <g class="com.sun.star.drawing.ClosedBezierShape">        <g id="id28">         <rect class="BoundingBox" stroke="none" fill="none" x="3519" y="556" width="304" height="63"></rect>         <path fill="rgb(255,255,255)" stroke="none" d="M 3795,578 C 3783,572 3769,567 3755,563 3728,556 3698,555 3671,558 3643,560 3617,565 3591,571 3578,574 3565,577 3552,580 3541,589 3529,598 3519,610 3534,614 3548,616 3562,618 3574,615 3587,611 3599,608 3624,602 3649,598 3674,596 3699,593 3722,594 3745,600 3757,603 3768,607 3778,614 3792,614 3805,616 3821,617 3816,602 3806,590 3795,578 Z "></path>        </g>       </g>       <g class="com.sun.star.drawing.ClosedBezierShape">        <g id="id29">         <rect class="BoundingBox" stroke="none" fill="none" x="3195" y="629" width="191" height="92"></rect>         <path fill="rgb(255,255,255)" stroke="none" d="M 3363,651 C 3358,648 3354,646 3350,644 3314,624 3266,625 3229,644 3220,648 3212,654 3204,659 3199,671 3195,681 3195,693 3207,692 3217,691 3226,691 3239,683 3252,676 3265,672 3263,680 3263,688 3267,696 3274,715 3296,725 3316,717 3330,711 3339,697 3339,682 3341,683 3341,684 3342,685 3354,695 3367,691 3384,693 3381,677 3379,658 3363,651 Z "></path>        </g>       </g>       <g class="com.sun.star.drawing.ClosedBezierShape">        <g id="id30">         <rect class="BoundingBox" stroke="none" fill="none" x="3564" y="629" width="190" height="92"></rect>         <path fill="rgb(255,255,255)" stroke="none" d="M 3711,685 C 3723,695 3736,691 3752,693 3750,677 3748,658 3731,651 3727,648 3723,646 3718,644 3683,624 3635,625 3598,644 3589,648 3581,654 3573,659 3568,671 3564,681 3564,693 3576,692 3585,691 3595,691 3603,685 3614,680 3624,676 3622,682 3623,689 3626,696 3633,715 3655,725 3675,717 3691,711 3700,694 3698,677 3701,678 3704,680 3706,681 3708,682 3710,683 3711,685 Z "></path>        </g>       </g>       <g class="com.sun.star.drawing.ClosedBezierShape">        <g id="id31">         <rect class="BoundingBox" stroke="none" fill="none" x="3389" y="1035" width="197" height="52"></rect>         <path fill="rgb(255,255,255)" stroke="none" d="M 3538,1080 C 3548,1079 3557,1077 3565,1075 3572,1067 3579,1059 3584,1050 3574,1045 3565,1042 3556,1037 3548,1040 3540,1042 3532,1043 3501,1048 3470,1049 3440,1043 3432,1041 3425,1040 3418,1036 3409,1040 3400,1043 3389,1046 3393,1057 3399,1065 3406,1074 3415,1076 3424,1079 3432,1080 3467,1088 3503,1088 3538,1080 Z "></path>        </g>       </g>       <g class="com.sun.star.drawing.ClosedBezierShape">        <g id="id32">         <rect class="BoundingBox" stroke="none" fill="none" x="3018" y="625" width="98" height="232"></rect>         <path fill="rgb(255,255,255)" stroke="none" d="M 3101,821 C 3079,800 3063,772 3058,742 3054,715 3051,680 3070,659 3070,651 3075,641 3087,633 3075,623 3056,625 3041,632 3017,663 3017,702 3020,739 3022,767 3032,795 3049,819 3056,829 3064,839 3074,848 3087,853 3100,856 3114,856 3109,843 3104,832 3101,821 Z "></path>        </g>       </g>       <g class="com.sun.star.drawing.ClosedBezierShape">        <g id="id33">         <rect class="BoundingBox" stroke="none" fill="none" x="3429" y="1148" width="106" height="44"></rect>         <path fill="rgb(255,255,255)" stroke="none" d="M 3511,1151 C 3491,1148 3472,1150 3453,1152 3448,1152 3444,1153 3439,1153 3435,1160 3432,1166 3429,1173 3435,1181 3440,1185 3445,1190 3457,1188 3470,1187 3482,1187 3493,1187 3504,1187 3515,1190 3520,1185 3526,1181 3533,1178 3534,1173 3533,1169 3532,1166 3531,1163 3529,1159 3528,1155 3522,1153 3517,1152 3511,1151 Z "></path>        </g>       </g>       <g class="com.sun.star.drawing.ClosedBezierShape">        <g id="id34">         <rect class="BoundingBox" stroke="none" fill="none" x="3030" y="13" width="907" height="599"></rect>         <path fill="rgb(255,255,255)" stroke="none" d="M 3070,607 C 3073,607 3072,607 3076,608 3096,617 3110,602 3114,585 3123,558 3131,532 3138,506 3145,490 3161,456 3167,441 3169,435 3173,428 3175,420 3191,397 3212,373 3231,351 3239,345 3247,339 3254,333 3262,344 3276,349 3289,340 3326,316 3371,302 3414,292 3470,280 3528,275 3585,270 3623,267 3662,265 3699,271 3725,281 3750,291 3775,301 3751,288 3727,274 3703,261 3664,251 3624,249 3584,247 3524,247 3466,245 3406,254 3363,264 3321,278 3283,300 3282,296 3281,292 3278,289 3272,281 3260,279 3252,286 3237,298 3222,311 3206,323 3205,323 3204,324 3203,325 3188,342 3172,362 3157,380 3151,389 3144,396 3139,406 3139,407 3138,410 3138,412 3135,418 3126,440 3122,448 3116,462 3110,476 3103,491 3095,517 3088,544 3079,568 3077,568 3074,568 3071,568 3067,550 3069,530 3069,512 3071,486 3082,419 3086,391 3085,375 3081,359 3075,343 3075,342 3074,341 3074,339 3075,337 3077,335 3079,333 3086,327 3094,321 3101,314 3107,306 3106,294 3098,287 3096,285 3093,283 3090,281 3112,250 3142,222 3168,195 3211,156 3262,118 3313,89 3363,59 3413,48 3471,51 3527,54 3584,63 3639,76 3684,95 3755,126 3800,162 3801,164 3801,167 3800,171 3799,188 3789,213 3811,222 3810,222 3810,222 3809,221 3816,226 3822,232 3828,238 3849,257 3873,277 3888,301 3891,309 3890,306 3887,316 3882,326 3879,347 3885,359 3888,368 3891,375 3896,383 3897,385 3896,384 3897,385 3898,388 3896,398 3893,404 3889,418 3890,433 3886,448 3882,473 3873,496 3863,519 3860,508 3857,497 3854,487 3854,486 3854,485 3853,485 3853,483 3851,481 3849,479 3836,470 3824,459 3815,446 3785,404 3776,351 3775,301 3767,369 3777,446 3831,494 3832,506 3833,519 3834,532 3834,533 3835,535 3836,536 3843,551 3859,565 3879,556 3900,544 3905,518 3913,497 3921,470 3927,445 3929,416 3936,400 3938,382 3930,365 3926,357 3919,347 3919,339 3920,338 3921,334 3923,330 3937,302 3920,275 3901,255 3880,233 3859,212 3835,194 3837,181 3841,168 3837,153 3836,146 3830,137 3825,133 3806,118 3786,106 3766,95 3728,73 3689,55 3649,39 3560,21 3471,3 3380,20 3290,45 3218,104 3148,161 3139,170 3126,183 3118,192 3097,214 3077,234 3058,259 3052,267 3045,279 3047,290 3048,295 3052,300 3056,303 3047,311 3039,319 3033,330 3032,334 3031,337 3032,342 3032,347 3036,353 3039,356 3043,365 3046,378 3047,389 3043,415 3040,441 3036,467 3033,500 3014,615 3070,607 Z M 3137,414 C 3137,413 3137,413 3137,413 3137,413 3137,413 3137,414 Z M 3268,309 C 3268,308 3269,308 3269,308 3269,308 3268,308 3268,309 Z M 3176,415 C 3176,416 3175,418 3175,420 3175,418 3175,416 3176,415 Z M 3867,524 C 3870,525 3869,526 3868,525 3867,525 3867,525 3867,524 Z M 3827,187 C 3827,187 3826,187 3825,187 3824,186 3825,187 3826,187 3827,187 3827,187 3827,187 Z M 3041,357 C 3045,360 3041,358 3041,357 Z "></path>        </g>       </g>       <g class="com.sun.star.drawing.ClosedBezierShape">        <g id="id35">         <rect class="BoundingBox" stroke="none" fill="none" x="3064" y="562" width="936" height="1171"></rect>         <path fill="rgb(255,255,255)" stroke="none" d="M 3846,1014 C 3847,1011 3848,1008 3848,1007 3848,1005 3851,994 3851,991 3858,956 3865,920 3872,884 3878,873 3884,860 3888,848 3884,853 3880,857 3876,862 3881,830 3887,799 3892,768 3893,750 3894,734 3894,716 3894,700 3889,680 3888,663 3887,653 3886,644 3884,635 3895,640 3903,647 3907,654 3913,656 3917,661 3920,668 3926,679 3927,697 3927,710 3926,735 3920,762 3909,785 3905,794 3900,803 3894,811 3893,823 3891,835 3888,848 3901,846 3914,840 3925,833 3933,823 3939,812 3944,801 3954,778 3961,754 3963,729 3966,705 3967,680 3955,651 3949,638 3937,625 3922,618 3906,617 3893,622 3884,631 3882,608 3879,585 3876,563 3872,596 3869,630 3867,664 3866,678 3866,690 3866,703 3864,723 3858,742 3854,762 3847,807 3839,853 3830,899 3817,907 3804,915 3791,923 3755,950 3715,972 3674,991 3647,919 3554,902 3483,912 3411,898 3330,921 3305,995 3295,990 3284,985 3276,980 3259,972 3245,960 3229,952 3205,940 3181,926 3159,909 3142,854 3122,799 3104,743 3111,811 3120,877 3131,944 3133,958 3140,979 3144,993 3148,1008 3152,1024 3158,1039 3159,1040 3160,1041 3161,1043 3162,1043 3162,1044 3162,1045 3174,1063 3186,1080 3199,1097 3155,1214 3110,1332 3065,1450 3063,1456 3064,1462 3067,1468 3073,1476 3085,1479 3094,1473 3125,1453 3157,1431 3192,1420 3194,1420 3192,1420 3194,1420 3204,1423 3217,1431 3227,1438 3272,1469 3323,1496 3369,1526 3380,1536 3391,1545 3402,1555 3436,1592 3472,1633 3482,1684 3480,1699 3480,1715 3482,1731 3489,1660 3537,1611 3581,1562 3591,1549 3601,1536 3611,1523 3665,1490 3723,1461 3774,1426 3781,1422 3789,1419 3793,1418 3794,1418 3795,1418 3795,1418 3796,1419 3796,1419 3797,1420 3813,1434 3843,1468 3858,1484 3873,1498 3887,1518 3906,1525 3915,1529 3927,1523 3931,1514 3931,1513 3932,1512 3932,1511 3954,1421 3976,1331 3998,1241 4001,1156 3929,1083 3868,1030 3861,1024 3854,1018 3846,1014 Z M 3169,941 C 3181,956 3194,970 3208,982 3238,1006 3276,1023 3311,1039 3322,1045 3336,1037 3337,1024 3341,996 3359,969 3386,957 3415,943 3451,946 3485,950 3543,942 3632,950 3643,1022 3645,1034 3658,1041 3669,1036 3721,1013 3768,986 3814,954 3816,952 3819,950 3821,948 3818,964 3815,980 3811,996 3811,999 3809,1003 3809,1006 3790,1048 3756,1086 3725,1122 3694,1157 3661,1190 3626,1222 3615,1230 3597,1234 3582,1237 3528,1248 3469,1250 3415,1239 3333,1216 3241,1092 3193,1023 3185,1003 3180,981 3174,959 3173,953 3171,947 3169,941 Z M 3198,1382 C 3189,1381 3179,1384 3172,1386 3154,1393 3137,1402 3121,1411 3152,1331 3182,1250 3212,1169 3220,1202 3228,1234 3236,1267 3240,1281 3245,1308 3246,1308 3255,1349 3270,1391 3292,1428 3300,1441 3309,1454 3318,1467 3317,1466 3316,1465 3315,1464 3294,1443 3275,1420 3248,1406 3232,1396 3217,1386 3198,1382 Z M 3371,1473 C 3354,1452 3338,1431 3325,1408 3296,1363 3285,1310 3273,1258 3264,1224 3256,1190 3248,1158 3286,1199 3325,1240 3378,1267 3412,1282 3450,1283 3486,1284 3521,1284 3555,1282 3590,1275 3613,1269 3638,1264 3656,1246 3660,1243 3663,1240 3666,1237 3696,1208 3726,1177 3754,1147 3777,1120 3801,1093 3821,1062 3826,1096 3830,1129 3828,1163 3824,1203 3792,1242 3767,1277 3726,1329 3675,1378 3634,1431 3620,1449 3606,1467 3592,1485 3547,1541 3495,1604 3483,1677 3479,1626 3449,1580 3420,1539 3403,1518 3389,1494 3371,1473 Z M 3902,1474 C 3896,1469 3891,1463 3886,1458 3872,1443 3843,1410 3828,1396 3799,1362 3758,1390 3730,1408 3706,1428 3677,1451 3648,1475 3667,1450 3687,1426 3707,1404 3737,1370 3768,1337 3797,1300 3826,1261 3855,1224 3865,1174 3869,1142 3865,1108 3861,1074 3911,1120 3960,1182 3961,1232 3942,1313 3922,1394 3902,1474 Z "></path>        </g>       </g>      </g>     </g>    </g>   </g>  </g> </g></svg>