<svg width="1600" height="1600" viewBox="0 0 1600 1600" fill="none" xmlns="http://www.w3.org/2000/svg">
  <defs>
    <filter id="blur-lg" x="-20%" y="-20%" width="140%" height="140%">
      <feGaussianBlur stdDeviation="44"/>
    </filter>
    <filter id="blur-md" x="-20%" y="-20%" width="140%" height="140%">
      <feGaussianBlur stdDeviation="20"/>
    </filter>
    <linearGradient id="mint-flow" x1="222" y1="210" x2="1120" y2="1150" gradientUnits="userSpaceOnUse">
      <stop stop-color="#7EE9CC" stop-opacity="0.36"/>
      <stop offset="1" stop-color="#7EE9CC" stop-opacity="0"/>
    </linearGradient>
    <linearGradient id="cream-flow" x1="1288" y1="264" x2="966" y2="786" gradientUnits="userSpaceOnUse">
      <stop stop-color="#FFF9EF" stop-opacity="0.48"/>
      <stop offset="1" stop-color="#FFF9EF" stop-opacity="0"/>
    </linearGradient>
    <linearGradient id="red-flow" x1="1318" y1="1104" x2="916" y2="868" gradientUnits="userSpaceOnUse">
      <stop stop-color="#E7333F" stop-opacity="0.22"/>
      <stop offset="1" stop-color="#E7333F" stop-opacity="0"/>
    </linearGradient>
  </defs>

  <g filter="url(#blur-lg)" opacity="0.7">
    <path d="M121 958C238 834 384 800 529 825C685 852 776 981 913 1014C1012 1038 1113 1030 1201 983" stroke="url(#mint-flow)" stroke-width="140" stroke-linecap="round"/>
    <path d="M1080 239C1238 287 1327 401 1300 545C1278 658 1180 747 1048 793" stroke="url(#cream-flow)" stroke-width="124" stroke-linecap="round"/>
    <path d="M1433 1026C1309 966 1181 956 1082 1002C980 1049 933 1140 916 1240" stroke="url(#red-flow)" stroke-width="114" stroke-linecap="round"/>
  </g>

  <g filter="url(#blur-md)" opacity="0.54">
    <path d="M431 222C564 260 668 345 713 441C748 516 742 601 713 670" stroke="#F8F5EC" stroke-opacity="0.42" stroke-width="12" stroke-linecap="round"/>
    <path d="M995 496C1090 455 1209 479 1278 556C1336 621 1358 709 1332 787" stroke="#97F1D8" stroke-opacity="0.38" stroke-width="14" stroke-linecap="round"/>
    <path d="M254 1166C374 1118 521 1137 623 1209C701 1264 742 1340 742 1415" stroke="#FFF8EA" stroke-opacity="0.28" stroke-width="14" stroke-linecap="round"/>
  </g>

  <g opacity="0.3">
    <circle cx="258" cy="413" r="5" fill="#FFF9EF"/>
    <circle cx="302" cy="366" r="3" fill="#FFF9EF"/>
    <circle cx="1088" cy="202" r="4" fill="#FFF9EF"/>
    <circle cx="1226" cy="305" r="6" fill="#7EE9CC"/>
    <circle cx="1375" cy="888" r="5" fill="#E7333F"/>
    <circle cx="1250" cy="942" r="3" fill="#E7333F"/>
    <circle cx="641" cy="1050" r="4" fill="#FFF9EF"/>
    <circle cx="762" cy="1094" r="3" fill="#97F1D8"/>
    <circle cx="552" cy="1264" r="4" fill="#FFF9EF"/>
  </g>
</svg>
