<svg width="1600" height="420" viewBox="0 0 1600 420" fill="none" xmlns="http://www.w3.org/2000/svg">
  <defs>
    <filter id="soft" x="-6%" y="-12%" width="112%" height="124%">
      <feGaussianBlur stdDeviation="8"/>
    </filter>
  </defs>
  <g filter="url(#soft)">
    <path d="M0 170C105 118 194 111 292 136C397 163 477 243 581 256C703 271 791 183 915 167C1026 152 1114 220 1226 244C1334 266 1430 253 1600 196V420H0V170Z" fill="#F6F0E5"/>
    <path d="M0 210C127 170 245 178 353 222C455 263 537 322 657 330C782 339 866 270 992 254C1110 239 1205 280 1315 305C1415 328 1507 326 1600 291V420H0V210Z" fill="#EEF6EE"/>
    <path d="M0 248C112 220 204 224 312 257C420 289 508 352 625 360C735 368 824 327 925 312C1048 294 1140 334 1255 353C1364 371 1460 374 1600 344V420H0V248Z" fill="#DDF1E8"/>
    <path d="M0 302C97 275 181 278 272 307C360 335 447 394 549 401C670 409 775 360 885 352C1005 343 1112 381 1229 394C1346 407 1456 402 1600 377V420H0V302Z" fill="#38B291" fill-opacity="0.12"/>
  </g>
</svg>
